Coordinates
version=1
nRows=17
nColumns=34
inDegrees=yes

Units are S.I. units (second, meters, Newtons, ...)
If the header above contains a line with 'inDegrees', this indicates whether rotational values are in degrees (yes) or radians (no).

endheader
time	pelvis_tilt	pelvis_list	pelvis_rotation	pelvis_tx	pelvis_ty	pelvis_tz	hip_flexion_r	hip_adduction_r	hip_rotation_r	knee_angle_r	ankle_angle_r	subtalar_angle_r	mtp_angle_r	hip_flexion_l	hip_adduction_l	hip_rotation_l	knee_angle_l	ankle_angle_l	subtalar_angle_l	mtp_angle_l	lumbar_extension	lumbar_bending	lumbar_rotation	arm_flex_r	arm_add_r	arm_rot_r	elbow_flex_r	pro_sup_r	arm_flex_l	arm_add_l	arm_rot_l	elbow_flex_l	pro_sup_l
      5.95000000	     10.73798218	      0.66251192	      3.40715129	      1.86174561	      1.07138452	     -0.12391062	     -7.95649393	      2.54780931	    -10.34900259	      4.64186768	      4.15575201	    -17.38216253	      0.00000000	      7.30653142	     -0.69525718	     -5.99427550	      6.90306998	     -1.27348338	    -13.45328816	      0.00000000	    -14.30653041	      1.03628857	      2.94562424	     10.18697205	    -11.59200878	      3.09675305	     35.03173958	     74.71285307	      2.77915165	     -3.97201960	     -4.75792682	     14.68711260	     65.32264353
      5.96666670	     10.63903327	      1.05085894	      3.42813666	      1.87148582	      1.07133236	     -0.12593468	     -8.48930905	      2.11518782	    -10.10065878	      4.76760030	      4.96250369	    -17.53894723	      0.00000000	      7.15792637	     -0.06927977	     -5.92179574	      6.43487234	     -1.85867300	    -12.33723388	      0.00000000	    -14.14120157	      0.37394912	      3.04051258	     10.30512092	    -11.48926262	      2.99538494	     35.29503946	     74.73661747	      2.44983064	     -4.25521609	     -4.81628185	     14.16542513	     65.21238291
      5.98333330	     10.89841753	      1.43688980	      3.27077214	      1.88014130	      1.07179418	     -0.12677008	     -9.37288362	      1.69460885	    -10.09255000	      5.02191133	      6.30279355	    -16.53410485	      0.00000000	      6.50022820	      0.36878895	     -7.04588101	      6.26379709	     -1.63321205	     -9.63746362	      0.00000000	    -14.34517870	     -0.31359760	      3.57486760	     10.18666213	    -11.26159996	      2.23773498	     35.86799822	     74.84434412	      2.86514311	     -4.45835886	     -4.79590286	     12.79499037	     64.58826129
      6.00000000	     10.72713739	      1.72270089	      3.50011065	      1.88887375	      1.07134816	     -0.12832848	     -9.76336746	      1.42911224	     -9.97066023	      5.32422917	      6.88938192	    -16.72164296	      0.00000000	      6.30891958	      0.80235961	     -6.73044918	      6.38809513	     -2.29196683	     -9.20975139	      0.00000000	    -13.92006404	     -0.83622598	      3.61937105	      9.92401893	    -11.11662112	      2.16414854	     35.94178219	     74.86512888	      2.63569917	     -4.77823967	     -4.76267144	     12.67660726	     64.50440009
      6.01666670	     10.58084360	      1.98318866	      3.69521378	      1.89699723	      1.07096168	     -0.13012034	    -10.05052726	      1.15960973	     -9.70088108	      5.80727562	      7.51991118	    -16.82968132	      0.00000000	      6.06284827	      1.18693316	     -6.59183793	      6.69044246	     -2.90272325	     -8.98111591	      0.00000000	    -13.56088382	     -1.33490158	      3.65130639	      9.62985127	    -10.88910978	      2.07937451	     36.01859981	     74.88055102	      2.47526938	     -5.10253086	     -4.70134234	     12.56153615	     64.42173011
      6.03333330	     10.43951825	      2.25174509	      3.90409016	      1.90536888	      1.07098426	     -0.13184079	    -10.27451139	      0.86194527	     -9.36796016	      6.42270806	      8.16542982	    -16.94449614	      0.00000000	      5.83524147	      1.61056685	     -6.54564134	      7.00910885	     -3.31539059	     -8.97529707	      0.00000000	    -13.25185853	     -1.84980474	      3.64246664	      9.22109767	    -10.61358137	      1.99783126	     36.03886826	     74.89235245	      2.39727864	     -5.42117891	     -4.60889524	     12.51175711	     64.34863227
      6.05000000	     10.31683316	      2.54219562	      4.12597026	      1.91615588	      1.07246264	     -0.13530629	    -10.47202853	      0.45707502	     -9.02441857	      7.25197950	      8.78104899	    -17.13894091	      0.00000000	      5.42672133	      2.12633466	     -6.43105352	      7.16556388	     -3.51082307	     -9.00270123	      0.00000000	    -12.87790249	     -2.32760301	      3.57784384	      8.66691452	    -10.31815919	      1.92973964	     35.96459606	     74.90092373	      2.29912777	     -5.67077932	     -4.49716285	     12.50815970	     64.29240258
      6.06666670	     10.19948165	      2.82374601	      4.32146522	      1.92487047	      1.07553088	     -0.13767231	    -10.51461878	     -0.00077641	     -8.72497037	      8.38226801	      9.17283439	    -17.42867260	      0.00000000	      4.92279554	      2.64694993	     -6.41725703	      7.09492834	     -3.65828272	     -9.06038997	      0.00000000	    -12.58968021	     -2.80302480	      3.48485490	      8.05868730	     -9.98186960	      1.85559812	     35.80282074	     74.90999198	      2.28800279	     -5.89518010	     -4.34076025	     12.59162230	     64.24608958
      6.08333330	     10.16451885	      3.03111957	      4.49478995	      1.93290970	      1.07779943	     -0.14037057	    -10.34810600	     -0.40827009	     -8.29615562	      9.91689521	      9.49978550	    -18.04313337	      0.00000000	      4.28985699	      3.06217136	     -6.30459751	      6.96835593	     -3.58911192	     -9.06429790	      0.00000000	    -12.43849957	     -3.17315899	      3.38861105	      7.42566639	     -9.63583672	      1.75417624	     35.49001424	     74.92392430	      2.34910937	     -6.07006699	     -4.10357760	     12.77140726	     64.20620034
      6.10000000	     10.14163590	      3.11485686	      4.48806075	      1.94117956	      1.07866928	     -0.14309141	     -9.83221517	     -0.71782631	     -7.19637744	     12.05782676	      8.68250745	    -20.42132654	      0.00000000	      3.59408461	      3.29777285	     -6.49242380	      6.79671681	     -3.33287039	     -8.89560563	      0.00000000	    -12.20176179	     -3.48559605	      3.44048878	      6.93870000	     -9.10618338	      1.26194528	     34.62616786	     75.01892267	      2.31104915	     -6.29329704	     -3.08402066	     13.26114629	     64.07899952
      6.11666670	     10.37862789	      3.31027275	      4.68437932	      1.94936781	      1.07870285	     -0.14648710	     -9.26826003	     -1.21252973	     -7.11586551	     14.80988986	      8.65288768	    -21.38441884	      0.00000000	      2.73223382	      3.66635300	     -6.20828684	      6.78204917	     -2.64865715	     -8.88703913	      0.00000000	    -12.40060512	     -3.84290183	      3.11781518	      6.37143664	     -8.74116951	      1.31990101	     34.26878203	     75.07632058	      2.53959737	     -6.41349960	     -2.89010789	     13.37692822	     64.03108821
      6.13333330	     10.37023847	      3.38302420	      4.68782151	      1.95720116	      1.07887671	     -0.14915954	     -8.10220459	     -1.57429270	     -6.20251281	     17.97683620	      7.41205651	    -24.32144071	      0.00000000	      1.98448328	      3.87093377	     -6.46636567	      6.51158356	     -1.86736325	     -8.45019797	      0.00000000	    -12.11162750	     -4.02861923	      2.91114655	      5.96370148	     -8.22839227	      1.34955538	     33.12710985	     75.26657265	      2.54317107	     -6.59255093	     -2.26354661	     13.83274917	     63.90742926
      6.15000000	     10.60750401	      3.58184748	      4.92477041	      1.96490998	      1.08073438	     -0.15258374	     -7.12635868	     -2.15273168	     -6.14274100	     21.20900328	      6.77814360	    -25.22728128	      0.00000000	      0.95969169	      4.23558126	     -6.03145992	      6.24921214	     -1.05564060	     -8.22768919	      0.00000000	    -12.23632283	     -4.29236986	      2.50060041	      5.37484271	     -7.91606648	      1.45497073	     32.61886602	     75.34395580	      2.73063475	     -6.61315400	     -2.09912352	     14.04123386	     63.86357746
      6.16666670	     10.39871433	      3.50586021	      5.01557793	      1.97041348	      1.08303261	     -0.15486413	     -5.48808369	     -2.35609193	     -5.29260099	     24.05157934	      4.92209331	    -27.96608627	      0.00000000	      0.35959593	      4.31278784	     -6.38256699	      5.67240340	     -0.03442769	     -7.19229450	      0.00000000	    -11.68798208	     -4.19131953	      2.05689738	      5.06676741	     -7.52556724	      1.68304526	     31.21057064	     75.61269535	      2.58801887	     -6.66328201	     -1.57633813	     14.78267651	     63.76494513
      6.18333330	     10.58070427	      3.49448833	      5.29158163	      1.97394702	      1.08700558	     -0.15674017	     -4.29832769	     -2.66588242	     -5.19128367	     26.29646310	      4.27115802	    -28.49458108	      0.00000000	     -0.70329312	      4.46741825	     -6.08235483	      4.84261227	      0.58929706	     -6.89196133	      0.00000000	    -11.92199956	     -4.15561841	      1.49334353	      4.56459775	     -7.23878141	      1.84625025	     30.74709848	     75.70122044	      2.98888656	     -6.64258769	     -1.45376936	     15.07531045	     63.74644793
      6.20000000	     10.47854450	      3.19746687	      5.42534065	      1.97681089	      1.08986718	     -0.15750961	     -2.84769695	     -2.55707889	     -4.64221384	     27.57636613	      2.12602556	    -30.75302072	      0.00000000	     -1.30896625	      4.25056436	     -6.60683410	      4.06278804	      1.20208561	     -5.70010739	      0.00000000	    -11.79814142	     -3.81718752	      0.81260485	      4.56824025	     -6.92380025	      2.35414940	     29.33165426	     76.04701501	      3.06019005	     -6.70057464	     -0.95074835	     16.05123889	     63.76725240
      6.21666670	     10.54856719	      2.87630549	      5.53882896	      1.98115123	      1.09021774	     -0.15929523	     -1.74935434	     -2.52922336	     -4.74096810	     28.01824708	      1.72593024	    -30.70691556	      0.00000000	     -2.04948154	      4.00125207	     -6.58543890	      3.25668973	      1.39123748	     -5.59606488	      0.00000000	    -12.01664989	     -3.41262631	      0.31298538	      4.12872885	     -6.70595515	      2.45143530	     29.09528409	     76.07713017	      3.61616467	     -6.59642269	     -0.90549096	     16.31696259	     63.77720597
